<?xml version="1.0" standalone="no"?>
<svg width="400" height="400" viewBox="-4220 -4220 8440 8440" xmlns="http://www.w3.org/2000/svg">
<title>Interlocked triskelions and partial triskelions in circle (pattern generated from Archimedean spirals inspired by the central design of Aberlemno cross)</title><defs>
  <!-- identity values="1 0 0 0 0  0 1 0 0 0  0 0 1 0 0  0 0 0 1 0" -->
  <filter id="fz" x="0" y="0" width="1" height="1">
    <feColorMatrix type="matrix" 
		   values="0 0 0 0 0  0 0 0 0 0  0 0 0 0 0  0 0 0 1 0"/>
  </filter>
  <filter id="fb" x="0" y="0" width="1" height="1">
    <feColorMatrix type="matrix" 
		   values="0 0 0 0 0  0 0 0 0 0  0 0 1 0 0  0 0 0 1 0"/>
  </filter>
  <filter id="fg" x="0" y="0" width="1" height="1">
    <feColorMatrix type="matrix" 
		   values="0 0 0 0 0  0 1 0 0 0  0 0 0 0 0  0 0 0 1 0"/>
  </filter>
  <filter id="fgb" x="0" y="0" width="1" height="1">
    <feColorMatrix type="matrix" 
		   values="0 0 0 0 0  0 1 0 0 0  0 0 1 0 0  0 0 0 1 0"/>
  </filter>
  <filter id="fr" x="0" y="0" width="1" height="1">
    <feColorMatrix type="matrix" 
		   values="1 0 0 0 0  0 0 0 0 0  0 0 0 0 0  0 0 0 1 0"/>
  </filter>
  <filter id="frb" x="0" y="0" width="1" height="1">
    <feColorMatrix type="matrix" 
		   values="1 0 0 0 0  0 0 0 0 0  0 0 1 0 0  0 0 0 1 0"/>
  </filter>
  <filter id="frg" x="0" y="0" width="1" height="1">
    <feColorMatrix type="matrix" 
		   values="1 0 0 0 0  0 1 0 0 0  0 0 0 0 0  0 0 0 1 0"/>
  </filter>
    <linearGradient id="lg"  >
      <stop  offset="0" style="stop-color:#777777"/>
      <stop  offset="0.5" style="stop-color:#FFFFFF"/>
      <stop  offset="1" style="stop-color:#777777"/>
    </linearGradient>
  <radialGradient id="brg"  >
    <stop stop-color="#333333" offset="0" />
    <stop stop-color="#999999" offset="1" />
  </radialGradient> 
  <radialGradient id="rg"  >
    <stop stop-color="#ffffff" offset="0" />
    <stop stop-color="#999999" offset="1" />
  </radialGradient> 
  <radialGradient id="urg"  >
    <stop stop-color="#ffffff" offset="0" />
    <stop stop-color="#999999" offset="1" />
  </radialGradient> 
  <radialGradient id="irg"  >
    <stop stop-color="#999999" offset="0" />
    <stop stop-color="#666666" offset="1" />
  </radialGradient> 

</defs>
<g transform="rotate(-90)scale(1,-1)">
<circle r="4186.11" style='fill:url(#brg);'/>
<path style='fill:url(#rg);filter:url(#fb)' 
      d="M-2155,2546 c0,-388,293,-678,611,-678 c287,0,426,211,426,352 c0,123,-77,198,-140,198 c-32,0,-43,-11,-48,-17 c23,-29,37,-65,38,-96 c0,-133,-123,-223,-254,-223 c-181,0,-401,163,-401,469 c0,331,300,643,714,643 c518,0,917,-454,917,-974 c0,-377,-164,-693,-481,-943 c-339,-266,-551,-663,-551,-1104 c0,-57,3,-114,10,-165 c77,-611,574,-1060,1138,-1060 c502,0,956,367,956,888 c0,383,-288,677,-611,677 c-287,0,-426,-211,-426,-352 c0,-131,84,-197,140,-197 c32,0,43,10,48,17 c-23,28,-37,64,-38,96 c0,120,109,222,254,222 c181,0,401,-163,401,-469 c0,-330,-300,-643,-714,-643 c-518,0,-917,455,-917,974 c0,676,567,1195,1257,1195 c215,0,398,-51,537,-109 c125,-52,294,-99,490,-99 c243,0,508,73,732,249 c171,136,402,405,402,823 c0,431,-324,852,-794,852 c-345,0,-592,-257,-592,-521 c0,-224,153,-347,279,-347 c67,0,132,43,132,96 c0,4,-2,8,-3,12 c-9,-1,-17,-2,-27,-2 c-110,0,-179,101,-179,203 c0,169,152,331,392,331 c259,0,556,-239,556,-630 c0,-454,-402,-825,-887,-825 c-124,0,-252,22,-362,62 c-178,65,-359,198,-475,342 c-296,364,-410,836,-687,1193 c-145,187,-328,306,-490,371 c-98,39,-238,77,-397,77 c-500,0,-956,-366,-956,-888Z M-2155,-2217 c0,-384,288,-678,611,-678 c287,0,426,211,426,352 c0,123,-77,198,-140,198 c-32,0,-43,-11,-48,-18 c23,-28,37,-64,38,-95 c0,-135,-125,-223,-254,-223 c-181,0,-401,163,-401,469 c0,331,300,643,714,643 c518,0,917,-454,917,-974 c0,-674,-565,-1194,-1257,-1194 c-16,0,-33,0,-49,1 c503,-216,1047,-328,1598,-328 c726,0,1424,194,2032,545 c158,91,268,535,300,871 c3,28,5,59,5,90 c0,463,-337,867,-796,867 c-345,0,-592,-257,-592,-521 c0,-224,153,-347,279,-347 c67,0,132,43,132,96 c0,4,-2,8,-3,12 c-9,-2,-17,-2,-27,-2  c-111,0,-179,102,-179,203 c0,169,152,331,392,331 c259,0,556,-239,556,-630 c0,-454,-402,-825,-887,-825 c-556,0,-1007,426,-1089,984 c-18,119,-474,785,-889,969 c-106,46,-260,91,-433,91 c-500,0,-956,-365,-956,-887Z"/> 
<path style='fill:url(#rg);filter:url(#fr)' 
      d="M-960,161 c0,-431,324,-851,794,-851 c345,0,592,257,592,520 c0,225,-153,347,-279,347 c-81,0,-132,-55,-132,-95 c0,-4,2,-8,3,-12 c9,1,17,2,27,2 c110,0,179,-102,179,-204 c0,-167,-151,-331,-392,-331 c-260,0,-556,240,-556,631 c0,454,402,824,887,824 c608,0,1102,-511,1102,-1167 c0,-426,-213,-815,-541,-1064 c-297,-227,-492,-581,-492,-968 c0,-57,4,-114,12,-166 c67,-454,434,-879,968,-879 c432,0,764,329,764,703 c0,307,-225,508,-433,508 c-163,0,-270,-101,-270,-209 c0,-47,29,-78,51,-81 c34,90,115,108,168,108 c134,0,262,-131,262,-320 c0,-204,-189,-474,-548,-474 c-392,0,-733,351,-733,800 c0,573,467,928,892,996 c104,16,209,22,312,22 c273,0,543,-40,804,-40 c88,0,175,5,261,16 c968,132,951,1055,968,1062 c0,428,-322,851,-794,851 c-345,0,-592,-257,-592,-520 c0,-225,153,-347,279,-347 c63,0,132,40,132,95 c0,4,-2,8,-3,12 c-9,-1,-17,-2,-27,-2 c-110,0,-179,101,-179,204 c0,168,152,331,392,331  c259,0,556,-240,556,-631 c0,-454,-402,-824,-887,-824 c-630,0,-1019,495,-1094,1023 c-73,511,-395,921,-829,1103 c-125,53,-294,99,-490,99 c-592,0,-1134,-436,-1134,-1072Z M-4064,0 c0,-183,330,-500,604,-696 c141,-101,322,-174,547,-174 c432,0,764,329,764,702 c0,301,-219,508,-433,508 c-163,0,-270,-101,-270,-208 c0,-47,29,-79,51,-81 c34,90,115,107,168,107 c134,0,262,-130,262,-319 c0,-206,-191,-474,-548,-474 c-390,0,-733,349,-733,799 c0,567,485,1010,1078,1010 c173,0,326,-39,442,-85 c51,-20,125,-20,139,-20 c17,0,782,40,1145,305 c199,146,433,426,433,846 c0,431,-324,852,-794,852 c-345,0,-592,-257,-592,-521 c0,-224,153,-347,279,-347 c71,0,132,47,132,96 c0,4,-2,8,-3,12 c-9,-1,-17,-2,-27,-2 c-110,0,-179,101,-179,203 c0,169,152,331,392,331 c259,0,556,-239,556,-630 c0,-454,-402,-825,-887,-825 c-608,0,-1102,512,-1102,1167 c0,279,89,514,203,696 c-1016,-761,-1627,-1963,-1627,-3252Z"/> 
<path style='fill:url(#rg);filter:url(#fg)' 
      d="M-3530,164 c0,-383,288,-677,611,-677 c287,0,426,211,426,352 c0,122,-77,197,-140,197 c-32,0,-43,-10,-48,-17 c23,-28,37,-64,38,-96 c0,-133,-123,-222,-254,-222 c-181,0,-401,163,-401,469 c0,330,300,643,714,643 c524,0,917,-460,917,-974 c0,-164,-35,-310,-73,-411 c-168,-438,-519,-773,-690,-1191 c-45,-111,-88,-266,-88,-444 c0,-560,414,-1045,980,-1045 c432,0,764,329,764,703 c0,300,-219,508,-433,508 c-163,0,-270,-101,-270,-209 c0,-47,29,-78,51,-81 c34,90,115,108,168,108 c134,0,262,-131,262,-320 c0,-205,-189,-474,-548,-474 c-390,0,-733,349,-733,800 c0,563,482,1010,1078,1010 c188,0,356,-47,480,-101 c203,-82,386,-107,547,-107 c377,0,659,148,822,273 c298,226,493,580,493,967 c0,561,-414,1045,-980,1045 c-432,0,-764,-329,-764,-702 c0,-301,219,-508,433,-508 c163,0,270,101,270,208 c0,47,-29,79,-51,81 c-34,-90,-115,-107,-168,-107 c-135,0,-262,131,-262,319 c0,206,191,474,548,474 c392,0,733,-351,733,-799 c0,-564,-482,-1010,-1078,-1010 c-613,0,-1172,481,-1260,1166 c-54,424,-322,817,-741,983 c-98,39,-238,77,-397,77 c-500,0,-956,-366,-956,-888Z M595,2546 c0,-383,288,-678,611,-678 c287,0,426,211,426,352 c0,123,-77,198,-140,198 c-32,0,-43,-11,-48,-17 c23,-29,37,-65,38,-96 c0,-135,-125,-223,-254,-223 c-181,0,-401,163,-401,469 c0,331,300,643,714,643 c521,0,917,-457,917,-974 c0,-461,-252,-763,-449,-918 c-120,-95,-402,-804,-402,-1127 c0,-44,3,-87,7,-128 c81,-578,504,-917,973,-917 c432,0,764,329,764,702 c0,301,-219,508,-433,508 c-163,0,-270,-101,-270,-208 c0,-47,29,-79,51,-81 c34,90,115,107,168,107 c134,0,262,-130,262,-319 c0,-206,-191,-474,-548,-474 c-390,0,-733,349,-733,799 c0,567,485,1010,1078,1010 c474,0,891,-282,1109,-690 c-151,1261,-887,2391,-2003,3035 c-52,30,-123,31,-154,31 c-230,0,-567,-122,-751,-206 c-252,-114,-532,-387,-532,-798Z"/>
<path  style='fill:url(#urg);' 
       d="M595,-2217 c0,-384,288,-678,611,-678 c287,0,426,211,426,352 c0,123,-77,198,-140,198 c-32,0,-43,-11,-48,-18 c23,-28,37,-64,38,-95 c0,-135,-125,-223,-254,-223 c-181,0,-401,163,-401,469 c0,330,300,643,714,643 c504,0,918,-435,918,-989 c0,-35,-2,-69,-5,-102 c-6,-60,-45,-423,-159,-694 c1106,757,1768,2009,1769,3350 c-14,106,-46,227,-87,325 c-172,415,-576,731,-1051,731 c-500,0,-956,-366,-956,-888 c0,-383,288,-677,611,-677 c287,0,426,211,426,352 c0,122,-77,197,-140,197 c-32,0,-43,-10,-48,-17 c23,-28,37,-64,38,-96 c0,-134,-124,-222,-254,-222 c-181,0,-401,163,-401,469 c0,330,300,643,714,643 c518,0,917,-455,917,-974 c0,-626,-481,-1102,-1075,-1183 c-92,-12,-185,-17,-277,-17 c-273,0,-543,40,-804,40 c-99,0,-196,-6,-292,-21 c-375,-60,-790,-371,-790,-875Z M-2518,2556 c0,-560,414,-1044,980,-1044 c432,0,764,329,764,702 c0,300,-219,508,-433,508 c-163,0,-270,-101,-270,-209 c0,-48,30,-78,51,-81 c34,90,116,108,168,108 c134,0,262,-131,262,-320 c0,-204,-189,-474,-548,-474 c-400,0,-733,360,-733,800 c0,566,485,1010,1078,1010 c173,0,326,-39,442,-86 c181,-71,381,-202,542,-409 c285,-369,402,-842,685,-1191 c105,-129,269,-248,422,-304 c94,-35,210,-54,320,-54 c432,0,764,329,764,702 c0,300,-219,508,-433,508 c-163,0,-270,-101,-270,-209 c0,-48,30,-78,51,-81 c34,90,116,108,168,108 c134,0,262,-131,262,-320 c0,-204,-189,-474,-548,-474 c-390,0,-733,349,-733,800 c0,468,317,779,604,909 c136,62,429,178,680,209 c-547,263,-1147,400,-1757,400 c-712,0,-1412,-187,-2029,-543 c-84,-64,-173,-153,-237,-237 c-124,-161,-252,-414,-252,-728Z M-4052,-310 c102,-1330,851,-2533,2017,-3207 c98,-41,219,-74,324,-88 c51,-7,106,-10,162,-10 c594,0,1134,437,1134,1072 c0,431,-324,852,-794,852 c-345,0,-592,-257,-592,-521 c0,-224,153,-347,279,-347 c67,0,132,43,132,96 c0,4,-2,8,-3,12 c-9,-2,-17,-2,-27,-2 c-110,0,-179,101,-179,203 c0,169,152,331,392,331 c259,0,556,-239,556,-630 c0,-454,-402,-825,-887,-825 c-608,0,-1102,512,-1102,1167 c0,196,46,365,97,490 c176,431,529,772,689,1189 c34,90,64,220,64,367 c0,428,-322,851,-794,851 c-345,0,-592,-257,-592,-520 c0,-225,153,-347,279,-347 c63,0,132,40,132,95 c0,4,-2,8,-3,12 c-9,-1,-17,-2,-27,-2 c-110,0,-179,101,-179,204 c0,168,152,331,392,331 c259,0,556,-240,556,-631 c0,-454,-402,-824,-887,-824 c-250,0,-454,80,-618,197 c-49,35,-344,250,-521,485Z"/>

<path style='fill:url(#irg);'
 d="M2392,1324 c182,283,311,506,311,881 c0,241,-50,365,-132,631 c450,-435,824,-962,1040,-1582 c-190,77,-381,165,-685,165 c-221,0,-331,-38,-534,-95Z M-3692,-991 c212,-120,420,-247,766,-247 c156,0,236,22,391,53 c-195,-325,-349,-598,-349,-1022c0,-66,0,-66,21,-329 c-370,438,-668,954,-829,1545Z M-765,3747 c200,30,428,72,765,72 c456,0,764,-76,987,-126 c-298,-145,-595,-397,-746,-905 c-211,432,-519,771,-1006,959Z M-719,-3754 c333,233,586,560,670,1021 c212,-493,616,-829,1218,-912 c-303,-76,-646,-174,-1169,-174 c-314,0,-531,36,-719,65Z M2294,-1603 c131,-2,150,-3,187,-3 c629,0,891,218,1147,395 c-209,-588,-526,-1085,-924,-1491 c3,39,5,77,5,115 c0,403,-162,721,-415,984Z M-3742,808 c164,657,444,1214,851,1693 c23,-437,230,-811,548,-1091 c-185,8,-185,9,-231,9 c-691,0,-1022,-453,-1168,-611Z"/>
</g></svg>
